<?xml version="1.0" encoding="UTF-8" standalone="no"?>
<svg 
    role="img" 
    xmlns="http://www.w3.org/2000/svg" 
    width="1000mm"
    height="1000mm"
    viewBox="0 0 1000 1000"
    style="max-width:1.6em; height: auto;">
    
    <path 
        id="path" 
        style="opacity:1;vector-effect:none;fill:#000000;fill-opacity:1;"
        d=" M 325 750C 325 750 875 750 875 750C 889 750 900 761 900 775C 900 775 900 825 900 825C 900 839 889 850 875 850C 875 850 325 850 325 850C 311 850 300 839 300 825C 300 825 300 775 300 775C 300 761 311 750 325 750C 325 750 325 750 325 750M 158 696C 158 696 242 696 242 696C 253 696 264 703 269 713C 274 724 272 736 265 745C 265 745 244 771 244 771C 247 773 249 775 252 778C 266 792 271 812 271 829C 271 851 261 870 247 882C 232 894 215 900 196 900C 175 901 160 898 148 892C 142 889 138 886 134 882C 131 879 127 873 127 873C 120 860 124 843 136 834C 148 825 165 827 176 838C 177 839 182 841 195 840C 200 840 206 838 208 836C 211 834 211 833 211 829C 211 824 210 821 208 819C 206 817 204 815 193 815C 182 815 171 808 166 798C 161 787 163 775 170 766C 170 766 178 756 178 756C 178 756 158 756 158 756C 147 756 137 750 132 741C 126 732 126 720 132 711C 137 701 147 696 158 696C 158 696 158 696 158 696M 325 450C 325 450 875 450 875 450C 889 450 900 461 900 475C 900 475 900 525 900 525C 900 539 889 550 875 550C 875 550 325 550 325 550C 311 550 300 539 300 525C 300 525 300 475 300 475C 300 461 311 450 325 450C 325 450 325 450 325 450M 195 391C 216 391 235 397 250 410C 264 424 272 444 272 463C 272 463 272 464 272 464C 272 492 256 516 239 531C 235 534 230 538 226 542C 226 542 246 542 246 542C 257 542 267 547 273 557C 278 566 278 577 273 587C 267 596 257 602 246 602C 246 602 146 602 146 602C 134 602 123 594 119 583C 114 572 117 559 125 551C 160 515 187 497 200 485C 213 474 212 478 212 463C 212 463 212 463 212 463C 212 458 210 456 209 454C 207 453 204 451 196 451C 175 451 173 465 173 465C 169 475 160 482 149 484C 139 486 128 481 121 473C 114 465 113 453 117 443C 117 443 140 391 195 391C 195 391 195 391 195 391M 325 150C 325 150 875 150 875 150C 889 150 900 161 900 175C 900 175 900 225 900 225C 900 239 889 250 875 250C 875 250 325 250 325 250C 311 250 300 239 300 225C 300 225 300 175 300 175C 300 161 311 150 325 150C 325 150 325 150 325 150M 205 91C 213 91 221 94 227 99C 233 105 236 113 236 121C 236 121 236 271 236 271C 236 282 231 292 221 297C 212 303 200 303 191 297C 182 292 176 282 176 271C 176 271 176 169 176 169C 176 169 170 173 170 173C 160 178 149 177 139 171C 130 165 125 155 126 144C 127 133 133 124 143 119C 143 119 193 94 193 94C 197 92 201 91 205 91C 205 91 205 91 205 91"
        transform="">
    </path>    
</svg>